<svg xmlns="http://www.w3.org/2000/svg" width="55" height="67" viewBox="0 0 55 67" fill="none"><g clip-path="url(#clip0_94_287)"><path d="M54.33 0.72C52.64 3.67 50.02 5.87 47.75 8.31C44.04 14.11 39.07 19.04 33.77 23.51C30.9 23.22 30.16 18.86 30.16 18.86V17.97C29.33 17.42 28.53 16.87 27.43 16.31C26.36 16.85 25.56 17.39 24.75 17.93L24.7 17.86C24.7 17.86 23.92 22.54 20.8 22.54C20.65 22.54 20.53 22.55 20.43 22.57C15.22 18.15 10.34 13.29 6.68999 7.57C4.42999 5.15 1.80999 2.95 0.119989 0C-0.310011 3.15 0.499989 6.43 1.46999 9.43C1.60999 9.88 1.74999 10.31 2.01999 10.67C3.11999 12.07 4.07999 13.55 5.21999 14.92C6.50999 16.52 7.86999 18.05 9.27999 19.54L9.10999 19.43C9.10999 19.43 21.29 32.22 23.58 41.12C23.8 46.22 24.03 51.47 24.09 52.94L24.19 55.18C24.19 55.95 24.12 56.68 24.43 57.42C24.76 58.52 25.1 59.61 25.45 60.7C25.92 62.81 26.43 64.9 27.04 66.99C27.15 66.71 27.25 66.43 27.35 66.14C27.37 66.18 27.38 66.22 27.4 66.26C27.49 65.94 27.58 65.62 27.67 65.3C28.53 62.93 29.29 60.54 30.01 58.13C30.32 57.4 30.26 56.66 30.25 55.89L30.35 53.65C30.43 51.81 30.74 44.61 31 38.75C33.02 34.22 36.69 29.24 39.67 25.59C43.1 22.51 46.34 19.22 49.23 15.63C50.36 14.26 51.32 12.78 52.43 11.38C52.7 11.02 52.84 10.58 52.98 10.14C53.95 7.14 54.76 3.86 54.33 0.71" fill="white"></path></g><defs><clipPath id="clip0_94_287"><rect width="54.44" height="66.99" fill="white"></rect></clipPath></defs></svg>