<svg xmlns="http://www.w3.org/2000/svg" width="103" height="127" viewBox="0 0 103 127" fill="none"><g clip-path="url(#clip0_174_14)"><path d="M102.792 1.36498C99.5944 6.95761 94.6374 11.1284 90.3426 15.7541C83.3233 26.7498 73.9201 36.0961 63.8925 44.5704C58.4625 44.0206 57.0624 35.7549 57.0624 35.7549V34.0676C55.4921 33.0249 53.9785 31.9822 51.8973 30.9206C49.8729 31.9443 48.3593 32.9681 46.8268 33.9918L46.7322 33.8591C46.7322 33.8591 45.2564 42.7315 39.3534 42.7315C39.0696 42.7315 38.8426 42.7504 38.6534 42.7883C28.7961 34.4089 19.5632 25.1953 12.6574 14.3512C8.38151 9.7634 3.42449 5.59263 0.227027 0C-0.586529 5.97179 0.945983 12.19 2.78121 17.8774C3.04609 18.7306 3.31097 19.5458 3.82181 20.2282C5.903 22.8824 7.71931 25.6882 9.87618 28.2854C12.3169 31.3187 14.89 34.2193 17.5577 37.044L17.236 36.8355C17.236 36.8355 40.2805 61.0828 44.6131 77.9555C45.0294 87.6241 45.4645 97.5771 45.5781 100.364L45.7673 104.611C45.7673 106.07 45.6348 107.454 46.2213 108.857C46.8457 110.943 47.489 113.009 48.1512 115.075C49.0404 119.076 50.0053 123.038 51.1594 127C51.3675 126.469 51.5567 125.938 51.7459 125.389C51.7838 125.464 51.8027 125.54 51.8405 125.616C52.0108 125.009 52.1811 124.403 52.3514 123.796C53.9785 119.303 55.4164 114.772 56.7786 110.203C57.3652 108.819 57.2516 107.416 57.2327 105.957L57.4219 101.71C57.5733 98.2217 58.1598 84.5719 58.6517 73.4625C62.4735 64.8745 69.4171 55.4333 75.0553 48.5137C81.5448 42.6746 87.6749 36.4374 93.1427 29.6314C95.2807 27.0342 97.097 24.2284 99.1971 21.5743C99.7079 20.8918 99.9728 20.0576 100.238 19.2235C102.073 13.5361 103.605 7.31781 102.792 1.34602" fill="#07B7C7"></path></g><defs><clipPath id="clip0_174_14"><rect width="103" height="127" fill="white"></rect></clipPath></defs></svg>