<svg xmlns="http://www.w3.org/2000/svg" width="71" height="135" viewBox="0 0 71 135" fill="none"><g clip-path="url(#clip0_94_300)"><path d="M53.465 0H17.5349C7.87418 0 0 7.91965 0 17.6362V117.364C0 127.08 7.87418 135 17.5349 135H53.4981C63.1589 135 71.0331 127.08 71.0331 117.364V17.6362C71.0331 7.91965 63.1589 0 53.4981 0M39.8672 133.503C42.514 124.718 47.2451 116.465 48.2046 107.215C48.5354 104.02 48.5685 100.759 48.767 97.5314C48.9655 94.2371 49.1971 90.9095 49.4618 87.6152C49.5941 86.1178 49.7926 84.687 50.5867 83.3892C51.3807 82.0582 52.3733 80.827 53.2665 79.5292C55.1524 76.8671 57.0382 74.2383 58.924 71.5763C62.3649 66.7513 65.7064 61.7932 69.5774 57.301V67.1506C68.5186 68.5815 67.4599 70.0456 66.4012 71.5097C63.192 76.002 60.0158 80.4942 56.8066 84.9864C56.0457 86.0845 55.1855 87.1494 54.5568 88.314C53.9613 89.4121 53.6966 90.6101 53.5643 91.8413C53.2665 94.5699 53.1011 97.2985 52.9357 100.027C52.7703 102.789 52.6048 105.584 52.4725 108.346C52.3402 111.075 52.1417 113.737 51.513 116.399C50.7852 119.36 49.8919 122.255 49.0648 125.184C48.2707 127.979 47.4767 130.741 46.6827 133.536H39.8672V133.503ZM31.5629 133.503C30.3388 129.21 29.0815 124.884 27.8574 120.592C27.2619 118.528 26.6664 116.432 26.0708 114.369C25.2106 111.341 24.6151 108.346 24.4166 105.185C24.2512 102.024 24.1188 98.8625 23.9203 95.7013C23.7218 92.5733 23.6226 89.3789 23.1594 86.2842C22.6962 83.2561 20.5126 80.8935 18.8253 78.4977C16.9725 75.9021 15.1528 73.3399 13.3001 70.7444C9.52842 65.4535 5.85601 59.9963 1.48882 55.2046V45.6544C2.84529 47.2517 4.26794 48.8489 5.82293 50.546C5.85601 50.6458 5.92218 50.7456 5.98835 50.8122C6.18686 51.0118 25.2768 71.3101 28.883 85.2194C29.247 93.3719 29.5778 101.757 29.7102 104.12L29.8425 107.148C29.8425 107.348 29.8425 107.514 29.8756 107.681C29.8756 107.847 29.8756 108.047 29.8756 108.213C29.8756 109.278 29.8756 110.376 30.3057 111.507C30.802 113.171 31.3313 114.868 31.9268 116.732C32.787 120.592 33.5811 123.786 34.4744 126.847C34.5736 127.147 34.8383 127.38 35.1361 127.38C35.4338 127.38 35.6985 127.18 35.8308 126.914C35.9301 126.648 36.0294 126.382 36.1286 126.115C36.2609 126.016 36.3602 125.882 36.4264 125.716C36.5256 125.383 36.5918 125.084 36.6911 124.751L36.8565 124.185C38.1137 120.725 39.2717 117.098 40.5951 112.705C41.0582 111.574 41.0582 110.476 41.0252 109.378C41.0252 109.211 41.0252 109.045 41.0252 108.878L42.2162 81.5258C45.4585 74.2383 51.4138 66.2189 55.8472 60.7616C61.1407 55.9699 65.6403 51.3113 69.5774 46.6194V55.1713C65.7726 59.4306 62.5303 64.1225 59.2218 68.7478C57.3029 71.4765 55.3509 74.1718 53.432 76.9004C52.5056 78.2315 51.5461 79.5625 50.6198 80.8602C49.7596 82.0582 48.8993 83.2561 48.5023 84.687C48.1053 86.1178 48.0391 87.6818 47.9399 89.1792C47.8075 90.843 47.6752 92.5068 47.576 94.2038C47.3444 97.4981 47.212 100.792 47.0466 104.087C46.9804 105.684 46.8812 107.281 46.6165 108.878C46.3518 110.442 45.9548 112.006 45.5247 113.537C44.9623 115.6 44.2675 117.597 43.5396 119.593C41.8192 124.219 39.8341 128.811 38.4445 133.569H31.6622L31.5629 133.503ZM8.2712 128.012C7.54334 125.383 7.08015 122.788 6.91472 120.092C6.7493 117.331 6.65005 114.569 6.48462 111.84C6.3192 109.012 6.12069 106.216 5.8891 103.388C5.78984 102.123 5.72367 100.859 5.39282 99.6278C5.06198 98.4299 4.40028 97.365 3.67241 96.3668C2.94455 95.3352 2.21668 94.3037 1.48882 93.2721V82.524C3.34157 85.1195 5.19431 87.7151 7.04706 90.3438C7.80801 91.4087 8.63513 92.4402 9.23066 93.5716C9.82619 94.703 9.99161 95.9675 10.0909 97.1987C10.3225 99.9273 10.521 102.656 10.6864 105.385C10.8518 108.113 10.9842 110.842 11.1165 113.57C11.2488 116.266 11.5135 118.895 12.1752 121.523C12.9031 124.485 13.7964 127.38 14.6235 130.308L15.5168 133.403C13.2339 133.103 11.0834 132.338 9.19758 131.173C8.89981 130.142 8.60205 129.077 8.30429 128.012M2.44828 12.1124C6.68313 16.405 10.8849 20.6643 15.1198 24.9569C17.5019 27.3527 19.8509 29.7486 22.233 32.1444C23.1263 33.0429 24.0857 34.141 25.4422 34.141C26.6994 34.141 27.8905 33.2758 28.883 32.577C30.7689 31.2127 32.4893 29.316 34.7721 28.6838C37.3858 27.9517 39.801 29.4824 41.9515 30.7469C43.1095 31.4124 44.3336 32.2443 45.657 32.4772C47.1128 32.7101 48.4362 32.0446 49.6272 31.3125C52.2078 29.7486 54.3914 27.5857 56.5419 25.4893C60.7437 21.3298 64.7801 17.0372 68.7833 12.7114C69.2796 14.2753 69.5443 15.9391 69.5443 17.6362V17.8691C69.5443 17.8691 69.445 17.9357 69.4119 18.0022C65.144 22.6276 60.876 27.2529 56.4427 31.7451C54.3253 33.8748 52.2409 36.071 49.8919 37.9344C48.8001 38.7996 47.5429 39.6981 46.2195 40.1972C44.7968 40.7296 43.5727 39.9643 42.3486 39.2655C40.165 38.0343 37.9814 36.5036 35.4007 36.3372C32.9856 36.2041 30.9343 37.5351 29.1146 38.966C28.1883 39.6981 27.3281 40.4634 26.3355 41.0624C25.8392 41.3951 25.2768 41.7612 24.7143 41.8943C24.0527 42.0606 23.5564 41.7612 23.0932 41.3286C20.7773 39.1989 18.6598 36.8363 16.4431 34.6068C11.4473 29.5489 6.45154 24.4577 1.42265 19.3998V17.6362C1.42265 15.7062 1.75349 13.8427 2.38211 12.1124M14.061 34.2408C16.4431 36.6367 18.7922 39.0325 21.1743 41.4284C22.0676 42.3268 23.027 43.4249 24.3835 43.4249C25.6407 43.4249 26.8318 42.5598 27.8243 41.861C29.7102 40.4967 31.4306 38.5999 33.7134 37.9677C36.3271 37.2356 38.7423 38.7663 40.8928 40.0308C42.0508 40.6963 43.2749 41.5282 44.5983 41.7612C46.0541 41.9941 47.3774 41.3286 48.5685 40.5965C51.1491 39.0325 53.3327 36.8696 55.4832 34.7732C60.3136 29.9815 64.9455 24.9901 69.5443 19.9988V29.915C68.9157 30.5805 68.254 31.246 67.6254 31.9115C67.6254 31.9115 67.5592 31.9781 67.5592 32.0113C62.4972 39.9643 55.5163 47.6177 45.657 56.0365C42.117 55.4042 40.9921 49.9137 40.8597 49.2815V47.9172C40.8597 47.6842 40.7274 47.4513 40.5289 47.2849L40.2311 47.0853C39.007 46.2534 37.7498 45.4215 36.0955 44.5896C35.897 44.4898 35.6323 44.4898 35.4338 44.5896C33.8458 45.3882 32.5885 46.2201 31.4306 47.0187C31.3644 47.0187 31.2982 47.0187 31.2321 47.0187C30.9343 47.0853 30.7358 47.3182 30.6696 47.6177C30.6696 47.6842 29.4786 54.5058 25.1775 54.5058C25.0452 54.5058 24.9459 54.5058 24.8136 54.5058C15.1198 46.2201 8.2712 38.6998 3.2754 30.8134C3.2754 30.7801 3.20923 30.7469 3.20923 30.7136C2.64678 30.1146 2.05126 29.5156 1.48882 28.9167V21.4962C5.69059 25.7555 9.85927 29.9815 14.061 34.2408ZM39.5363 109.344C39.5363 110.309 39.5363 111.241 39.2055 112.106V112.173C37.9152 116.565 36.7241 120.192 35.4669 123.653C35.4669 123.653 35.4669 123.686 35.4669 123.719L35.3015 124.318C34.6398 121.889 34.0112 119.327 33.3495 116.366C33.3495 116.366 33.3495 116.332 33.3495 116.299C32.754 114.436 32.2246 112.705 31.7283 111.041V110.975C31.3644 110.11 31.3644 109.245 31.3975 108.246C31.3975 108.047 31.3975 107.88 31.3975 107.681C31.3975 107.681 31.3975 107.681 31.3975 107.647C31.3975 107.581 31.2321 104.053 31.2321 104.053C31.1328 101.691 30.7689 93.2721 30.4049 85.0863C30.4049 85.0197 30.4049 84.9864 30.4049 84.9199C26.9972 71.6428 10.5541 53.441 7.57642 50.2465C7.57642 50.1467 7.47717 50.0468 7.411 49.9803C5.26048 47.6842 3.34157 45.5213 1.58807 43.3584V31.1462C1.78658 31.3458 1.98509 31.5788 2.1836 31.7784C7.31174 39.8312 14.2926 47.5179 24.2181 55.9699C24.3835 56.103 24.6151 56.1696 24.8467 56.1363C24.979 56.1363 25.1445 56.103 25.3099 56.103C30.1072 56.103 31.7614 50.2798 32.1584 48.4829L32.2577 48.4163C33.4157 47.651 34.4744 46.9189 35.897 46.1868C37.2866 46.9189 38.3784 47.651 39.5033 48.4163V49.4479C39.5033 49.4479 39.5033 49.5144 39.5033 49.581C39.5694 49.8805 40.8267 57.1346 45.9217 57.667C46.1202 57.667 46.3187 57.6337 46.4842 57.5006C56.6081 48.9155 63.7213 41.1289 68.9157 33.0096C69.1803 32.7434 69.445 32.4772 69.7097 32.1777V44.3567C65.5741 49.4811 60.7437 54.5058 54.9539 59.7301L54.8877 59.7966C50.3551 65.387 44.2675 73.6061 40.959 81.0932C40.9259 81.193 40.8928 81.2596 40.8928 81.3594L39.7018 108.912C39.7018 109.078 39.7018 109.278 39.7018 109.444M1.48882 57.4008C4.86347 61.2608 7.77493 65.4868 10.7526 69.6796C12.6053 72.2751 14.425 74.8373 16.2777 77.4328C17.2041 78.7639 18.1636 80.0949 19.0899 81.3926C19.9171 82.5573 20.8765 83.6887 21.3728 85.053C21.8691 86.4838 21.9021 88.0478 22.0014 89.5452C22.1337 91.1092 22.233 92.6399 22.3322 94.2038C22.5638 97.365 22.7293 100.56 22.8616 103.721C22.9939 106.815 23.3248 109.81 24.0857 112.838C24.6813 115.068 25.3099 117.264 25.9716 119.46C27.3281 124.152 28.6514 128.811 30.0079 133.503H24.5489C23.1594 128.578 21.7036 123.686 20.3472 118.728C19.6193 116.099 19.1561 113.504 18.9907 110.808C18.8253 108.047 18.726 105.285 18.5606 102.556C18.3952 99.7276 18.1966 96.9325 17.965 94.104C17.8658 92.8395 17.7996 91.5751 17.4688 90.3438C17.1379 89.1459 16.4762 88.0811 15.7484 87.0828C12.5722 82.5906 9.363 78.0984 6.15377 73.6061C4.59879 71.4432 3.07689 69.2803 1.48882 67.1506V57.4008ZM16.2777 3.56051C18.6598 5.95637 21.0089 8.35223 23.391 10.7481C24.2842 11.6465 25.2437 12.7446 26.6002 12.7446C27.8574 12.7446 29.0485 11.8795 30.041 11.1807C31.9268 9.81637 33.6472 7.91964 35.9301 7.2874C38.5438 6.55534 40.959 8.08602 43.1095 9.3505C44.2675 10.016 45.4916 10.8479 46.815 11.0808C48.2707 11.3138 49.5941 10.6483 50.7852 9.91619C53.3658 8.35223 55.5494 6.1893 57.6999 4.09293C58.2293 3.59379 58.7255 3.06138 59.2218 2.52896C61.0746 3.26103 62.7619 4.29258 64.2176 5.62361C62.1994 7.78654 60.1813 9.91619 58.0969 11.9793C55.9795 14.1089 53.8951 16.3052 51.5461 18.1686C50.4543 19.0338 49.1971 19.9322 47.8737 20.4314C46.4511 20.9638 45.2269 20.1984 44.0028 19.4996C41.8192 18.2684 39.6356 16.7377 37.055 16.5714C34.6398 16.4383 32.5885 17.7693 30.7689 19.2001C29.8425 19.9322 28.9823 20.6976 27.9897 21.2965C27.4935 21.6293 26.931 21.9953 26.3686 22.1284C25.7069 22.2948 25.2106 21.9953 24.7474 21.5627C22.4315 19.4331 20.3141 17.0705 18.0974 14.841C14.7227 11.4136 11.3481 8.01947 7.97344 4.59206C9.85927 3.19448 12.076 2.1962 14.4911 1.73034C15.0867 2.32931 15.6822 2.92827 16.2446 3.52724M53.465 1.49741C54.9208 1.49741 56.3103 1.69707 57.6337 2.0631C55.8472 3.86 54.0606 5.65689 52.1086 7.22085C51.0168 8.08602 49.7596 8.98447 48.4362 9.48361C47.0135 10.016 45.7894 9.25068 44.5652 8.55189C42.3816 7.32068 40.198 5.78999 37.6174 5.62361C35.2022 5.49051 33.151 6.82154 31.3313 8.2524C30.4049 8.98447 29.5447 9.74981 28.5522 10.3488C28.0559 10.6815 27.4935 11.0476 26.931 11.1807C26.2693 11.3471 25.7731 11.0476 25.3099 10.615C22.9939 8.48533 20.8765 6.12275 18.6598 3.89327C17.8658 3.09465 17.1048 2.29603 16.3108 1.49741C16.7078 1.49741 17.1048 1.46414 17.5019 1.46414H53.465V1.49741ZM6.84856 5.59034C9.7931 8.58516 12.7376 11.5467 15.6822 14.5415C18.0643 16.9374 20.4133 19.3333 22.7954 21.7291C23.6887 22.6276 24.6482 23.7257 26.0047 23.7257C27.2619 23.7257 28.4529 22.8605 29.4455 22.1617C31.3313 20.7974 33.0517 18.9007 35.3346 18.2684C37.9483 17.5364 40.3635 19.067 42.514 20.3315C43.6719 20.997 44.8961 21.8289 46.2195 22.0619C47.6752 22.2948 48.9986 21.6293 50.1897 20.8972C52.7703 19.3333 54.9539 17.1703 57.1044 15.0739C59.8835 12.3453 62.5965 9.51688 65.2432 6.65516C66.4343 7.95292 67.4268 9.48361 68.1547 11.1474C64.6477 14.9408 61.1407 18.7343 57.5014 22.3946C55.384 24.5243 53.2996 26.7205 50.9506 28.5839C49.8588 29.4491 48.6016 30.3475 47.2782 30.8467C45.8555 31.3791 44.6314 30.6138 43.4073 29.915C41.2237 28.6838 39.0401 27.1531 36.4595 26.9867C34.0443 26.8536 31.993 28.1846 30.1733 29.6155C29.247 30.3475 28.3868 31.1129 27.3942 31.7119C26.8979 32.0446 26.3355 32.4106 25.7731 32.5438C25.1114 32.7101 24.6151 32.4106 24.1519 31.9781C21.836 29.8484 19.7185 27.4858 17.5019 25.2563C12.6715 20.3648 7.8411 15.4733 3.01072 10.5817C3.93709 8.65171 5.2274 6.95465 6.78239 5.52379M1.48882 117.364V95.8011C2.1836 96.7661 2.91146 97.7311 3.4739 98.7626C4.06943 99.894 4.23486 101.158 4.33411 102.39C4.5657 105.118 4.76421 107.847 4.92964 110.576C5.09506 113.304 5.2274 116.033 5.35974 118.761C5.49208 121.457 5.75676 124.086 6.41845 126.714C6.68313 127.746 6.94781 128.744 7.24557 129.742C3.73858 126.781 1.48882 122.322 1.48882 117.364ZM17.0718 133.503C16.0461 129.942 15.0205 126.382 14.028 122.788C13.3001 120.159 12.8369 117.563 12.6715 114.868C12.5061 112.106 12.4068 109.344 12.2414 106.616C12.076 103.787 11.8774 100.992 11.6459 98.1637C11.5466 96.8992 11.4804 95.6347 11.1496 94.4035C10.8187 93.2056 10.157 92.1407 9.42917 91.1425C6.78239 87.4156 4.1356 83.6887 1.48882 79.9618V69.613C2.28285 70.7111 3.07689 71.7759 3.83784 72.874C7.01398 77.333 10.1901 81.792 13.3663 86.2509C14.1272 87.3158 14.9543 88.3473 15.5499 89.4787C16.1454 90.6101 16.3108 91.8745 16.4101 93.1057C16.6417 95.8344 16.8402 98.563 17.0056 101.292C17.171 104.02 17.3034 106.749 17.4357 109.477C17.568 112.173 17.8327 114.802 18.4944 117.43C19.2223 120.392 20.1156 123.287 20.9427 126.215C21.6375 128.644 22.3322 131.073 23.027 133.503H17.5349C17.5349 133.503 17.2372 133.503 17.0718 133.503ZM48.2046 133.503C49.5941 128.644 50.9837 123.786 52.3402 118.928C53.068 116.332 53.5974 113.77 53.7628 111.075C53.9613 108.379 54.0275 105.651 54.1929 102.955C54.3583 100.193 54.5568 97.3983 54.7554 94.6364C54.8546 93.3719 54.8877 92.0742 55.1524 90.843C55.4171 89.5785 56.0457 88.547 56.7735 87.5154C59.9166 83.0564 63.1258 78.5975 66.302 74.1385C67.3607 72.6411 68.4194 71.1437 69.5112 69.6796V80.0283C67.3607 83.0564 65.2432 86.0513 63.0927 89.0794C62.3318 90.1775 61.4716 91.2423 60.843 92.407C60.2474 93.5051 59.9828 94.703 59.8504 95.9342C59.5527 98.6628 59.3872 101.391 59.2218 104.12C59.0564 106.882 58.891 109.677 58.7586 112.439C58.6263 115.168 58.4278 117.83 57.7992 120.492C57.0713 123.453 56.178 126.348 55.3509 129.277C54.9539 130.707 54.5238 132.138 54.1267 133.536C53.8952 133.536 53.6966 133.536 53.465 133.536H48.2046V133.503ZM62.1002 130.974C60.2144 132.205 58.0308 133.037 55.7148 133.336C56.7074 129.876 57.6999 126.415 58.6594 122.954C59.3872 120.359 59.9166 117.796 60.082 115.101C60.2805 112.406 60.3467 109.677 60.5121 106.982C60.6775 104.22 60.876 101.425 61.0746 98.6628C61.1738 97.3983 61.2069 96.1006 61.4716 94.8694C61.7363 93.6049 62.3649 92.5733 63.0927 91.5418C65.2102 88.547 67.3607 85.5189 69.4781 82.524V93.2721C69.2465 93.6049 69.0149 93.9044 68.7833 94.2371C68.0224 95.3352 67.1622 96.4 66.5335 97.5647C65.938 98.6628 65.6733 99.8607 65.541 101.092C65.2432 103.821 65.0778 106.549 64.9124 109.278C64.747 112.04 64.5815 114.835 64.4492 117.597C64.3169 120.325 64.1184 122.987 63.4897 125.649C63.0596 127.446 62.5634 129.21 62.034 130.974M64.0522 129.509C64.1845 129.077 64.3169 128.611 64.4161 128.178C65.144 125.583 65.6733 123.021 65.8388 120.325C66.0373 117.63 66.1034 114.901 66.2689 112.206C66.4343 109.444 66.6328 106.649 66.8313 103.887C66.9306 102.623 66.9636 101.325 67.2283 100.094C67.493 98.8292 68.1216 97.7976 68.8495 96.7661C69.0811 96.4666 69.2796 96.1671 69.5112 95.8344V117.364C69.5112 122.189 67.3938 126.548 64.0191 129.509" fill="#0D6266"></path></g><defs><clipPath id="clip0_94_300"><rect width="71" height="135" fill="white"></rect></clipPath></defs></svg>